<svg width="16" height="16" viewBox="0 0 16 16" fill="none" xmlns="http://www.w3.org/2000/svg">
<path d="M5.36993 12.339L5.20227 12.6747C5.14808 12.785 5.09389 12.8952 4.92963 13.2224L3.53931 15.9864L3.39367 15.9881C2.93136 15.9983 2.47074 16 2.01351 16C1.64095 16 1.2667 16 0.900916 15.9983L0 15.9932L2.43687 11.1113C2.90596 11.2436 3.42754 11.4199 3.98299 11.6539C4.50627 11.8744 4.96689 12.1101 5.36993 12.339Z" fill="#0B332B"/>
<path d="M10.6309 12.339L10.7985 12.6747C10.8527 12.785 10.9069 12.8952 11.0712 13.2224L12.4615 15.9864L12.6071 15.9881C13.0694 15.9983 13.53 16 13.9873 16C14.3598 16 14.7341 16 15.0999 15.9983L16.0008 15.9932L13.5639 11.1113C13.0948 11.2436 12.5732 11.4199 12.0178 11.6539C11.4945 11.8744 11.0322 12.1101 10.6309 12.339Z" fill="#0B332B"/>
<path d="M12.0094 8.02053L11.7655 8.12906C11.0238 8.45632 10.3346 8.80563 9.53696 9.39742L9.30665 9.57038L7.99761 7.07943L6.59882 9.75521L6.36344 9.55681C5.60985 8.92432 4.91215 8.59198 4.16534 8.23588L3.93164 8.12906L7.69448 0H8.37525L12.0094 8.02053Z" fill="#0B332B"/>
<path d="M1.11136 9.95747C1.50932 9.36398 1.93268 8.78067 2.31371 8.17871C3.06221 8.27876 3.25527 8.29063 4.09861 8.64502C4.63204 8.86885 5.69214 9.47081 6.33735 10.0372C6.69636 10.3526 7.63453 11.0427 7.99862 11.4683C8.45416 10.9952 9.36016 10.2067 9.79537 9.8676C10.488 9.32668 11.4143 8.86885 11.9359 8.66706C12.7962 8.33301 12.8775 8.23636 13.6327 8.18549C13.8563 8.67554 14.3084 9.51151 14.5082 9.9049C14.7081 10.2983 14.6793 10.2373 14.8419 10.5442C14.7064 10.5408 14.7267 10.5374 14.576 10.551C14.4625 10.5594 14.8249 10.5204 14.5032 10.5577C14.1814 10.595 13.6446 10.6137 12.9977 10.8087C12.3508 11.0054 11.333 11.2631 10.5439 11.8295C9.67514 12.4535 8.70479 13.4879 8.00032 14.5205C7.32802 13.5167 6.33396 12.5875 5.38732 11.9448C4.58124 11.3988 3.68202 11.102 2.94029 10.8782C2.19856 10.6544 1.66512 10.6273 1.08596 10.556C0.764202 10.517 0.984351 10.5374 0.742188 10.5153" fill="#3DC188"/>
</svg>
