<svg width="24" height="25" viewBox="0 0 24 25" fill="none" xmlns="http://www.w3.org/2000/svg">
<path d="M3 3.17383H21C21.2652 3.17383 21.5196 3.27912 21.7071 3.46654C21.8946 3.65396 22 3.90816 22 4.17322V20.1635C22 20.4285 21.8946 20.6827 21.7071 20.8701C21.5196 21.0576 21.2652 21.1628 21 21.1628H3C2.73478 21.1628 2.48043 21.0576 2.29289 20.8701C2.10536 20.6827 2 20.4285 2 20.1635V4.17322C2 3.90816 2.10536 3.65396 2.29289 3.46654C2.48043 3.27912 2.73478 3.17383 3 3.17383ZM12.06 11.8515L5.648 6.40985L4.353 7.93292L12.073 14.4839L19.654 7.92792L18.346 6.41585L12.061 11.8515H12.06Z" fill="#107E68"/>
</svg>
