<svg width="20" height="20" viewBox="0 0 20 20" fill="none" xmlns="http://www.w3.org/2000/svg">
<path opacity="0.4" d="M20 9.998C20 15.5037 15.5116 19.9873 10 19.9873C4.48842 19.9873 0 15.5037 0 9.998C0 4.48265 4.48842 -0.000976562 10 -0.000976562C15.5116 -0.000976562 20 4.48265 20 9.998Z" fill="#107E68"/>
<path d="M14 9.99764C14 10.2502 13.9205 10.5038 13.7614 10.7068C13.7315 10.7467 13.5923 10.9108 13.483 11.0177L13.4233 11.076C12.5881 11.961 10.5099 13.2919 9.45597 13.7184C9.45597 13.7281 8.82955 13.9817 8.53125 13.9904H8.49148C8.03409 13.9904 7.60653 13.7388 7.38778 13.3308C7.26847 13.1064 7.15909 12.4555 7.14915 12.4467C7.05966 11.8629 7 10.9691 7 9.98792C7 8.95912 7.05966 8.02552 7.16903 7.45234C7.16903 7.44263 7.27841 6.91803 7.34801 6.74316C7.45739 6.49155 7.65625 6.27685 7.90483 6.14084C8.10369 6.04466 8.3125 5.99512 8.53125 5.99512C8.75994 6.0058 9.1875 6.15055 9.35653 6.21856C10.4702 6.64601 12.598 8.04495 13.4134 8.89986C13.5526 9.03586 13.7017 9.20199 13.7415 9.23988C13.9105 9.4536 14 9.7159 14 9.99764Z" fill="#107E68"/>
</svg>
