<svg width="15" height="9" viewBox="0 0 15 9" fill="none" xmlns="http://www.w3.org/2000/svg">
<path fill-rule="evenodd" clip-rule="evenodd" d="M13.791 5.41602H1.75C1.336 5.41602 1 5.08002 1 4.66602C1 4.25202 1.336 3.91602 1.75 3.91602H13.791C14.205 3.91602 14.541 4.25202 14.541 4.66602C14.541 5.08002 14.205 5.41602 13.791 5.41602Z" fill="#107E68"/>
<path d="M13.791 5.41602H1.75C1.336 5.41602 1 5.08002 1 4.66602C1 4.25202 1.336 3.91602 1.75 3.91602H13.791C14.205 3.91602 14.541 4.25202 14.541 4.66602C14.541 5.08002 14.205 5.41602 13.791 5.41602" stroke="white" stroke-width="0.5"/>
<path fill-rule="evenodd" clip-rule="evenodd" d="M10.863 8.33075C10.671 8.33075 10.478 8.25775 10.332 8.10975C10.039 7.81575 10.041 7.34175 10.334 7.04975L12.728 4.66575L10.334 2.28075C10.041 1.98875 10.039 1.51475 10.332 1.22075C10.625 0.926751 11.099 0.926751 11.392 1.21875L14.321 4.13475C14.463 4.27475 14.542 4.46675 14.542 4.66575C14.542 4.86475 14.463 5.05675 14.321 5.19675L11.392 8.11175C11.246 8.25775 11.054 8.33075 10.863 8.33075Z" fill="#107E68"/>
<path d="M10.863 8.33075C10.671 8.33075 10.478 8.25775 10.332 8.10975C10.039 7.81575 10.041 7.34175 10.334 7.04975L12.728 4.66575L10.334 2.28075C10.041 1.98875 10.039 1.51475 10.332 1.22075C10.625 0.926751 11.099 0.926751 11.392 1.21875L14.321 4.13475C14.463 4.27475 14.542 4.46675 14.542 4.66575C14.542 4.86475 14.463 5.05675 14.321 5.19675L11.392 8.11175C11.246 8.25775 11.054 8.33075 10.863 8.33075" stroke="white" stroke-width="0.5"/>
</svg>
